<svg width="24" height="25" viewBox="0 0 24 25" fill="none" xmlns="http://www.w3.org/2000/svg">
<path d="M19.5 5.36572H16.9012L15.6234 3.44947C15.555 3.34686 15.4623 3.26273 15.3535 3.20451C15.2448 3.14629 15.1233 3.1158 15 3.11572H9C8.87665 3.1158 8.75522 3.14629 8.64648 3.20451C8.53773 3.26273 8.44502 3.34686 8.37656 3.44947L7.09781 5.36572H4.5C3.90326 5.36572 3.33097 5.60278 2.90901 6.02473C2.48705 6.44669 2.25 7.01899 2.25 7.61572V18.1157C2.25 18.7125 2.48705 19.2848 2.90901 19.7067C3.33097 20.1287 3.90326 20.3657 4.5 20.3657H19.5C20.0967 20.3657 20.669 20.1287 21.091 19.7067C21.5129 19.2848 21.75 18.7125 21.75 18.1157V7.61572C21.75 7.01899 21.5129 6.44669 21.091 6.02473C20.669 5.60278 20.0967 5.36572 19.5 5.36572ZM20.25 18.1157C20.25 18.3146 20.171 18.5054 20.0303 18.6461C19.8897 18.7867 19.6989 18.8657 19.5 18.8657H4.5C4.30109 18.8657 4.11032 18.7867 3.96967 18.6461C3.82902 18.5054 3.75 18.3146 3.75 18.1157V7.61572C3.75 7.41681 3.82902 7.22605 3.96967 7.08539C4.11032 6.94474 4.30109 6.86572 4.5 6.86572H7.5C7.62351 6.8658 7.74512 6.83538 7.85405 6.77716C7.96297 6.71893 8.05583 6.63471 8.12438 6.53197L9.40125 4.61572H14.5978L15.8756 6.53197C15.9442 6.63471 16.037 6.71893 16.146 6.77716C16.2549 6.83538 16.3765 6.8658 16.5 6.86572H19.5C19.6989 6.86572 19.8897 6.94474 20.0303 7.08539C20.171 7.22605 20.25 7.41681 20.25 7.61572V18.1157ZM12 8.36572C11.1842 8.36572 10.3866 8.60765 9.70827 9.06091C9.02992 9.51417 8.50121 10.1584 8.189 10.9122C7.87679 11.6659 7.7951 12.4953 7.95426 13.2955C8.11343 14.0956 8.50629 14.8306 9.08318 15.4075C9.66008 15.9844 10.3951 16.3773 11.1953 16.5365C11.9954 16.6956 12.8248 16.6139 13.5786 16.3017C14.3323 15.9895 14.9766 15.4608 15.4298 14.7824C15.8831 14.1041 16.125 13.3066 16.125 12.4907C16.1238 11.3971 15.6888 10.3486 14.9154 9.57528C14.1421 8.80196 13.0936 8.36696 12 8.36572ZM12 15.1157C11.4808 15.1157 10.9733 14.9618 10.5416 14.6733C10.1099 14.3849 9.7735 13.9749 9.57482 13.4953C9.37614 13.0156 9.32415 12.4878 9.42544 11.9786C9.52672 11.4694 9.77673 11.0017 10.1438 10.6346C10.511 10.2675 10.9787 10.0174 11.4879 9.91616C11.9971 9.81487 12.5249 9.86686 13.0045 10.0655C13.4842 10.2642 13.8942 10.6007 14.1826 11.0324C14.471 11.464 14.625 11.9715 14.625 12.4907C14.625 13.1869 14.3484 13.8546 13.8562 14.3469C13.3639 14.8392 12.6962 15.1157 12 15.1157Z" fill="#1C1C1C"/>
</svg>
