<svg width="44" height="44" viewBox="0 0 44 44" fill="none" xmlns="http://www.w3.org/2000/svg">
<path d="M21.2007 21.9691C21.2007 22.2836 21.3175 22.5531 21.5691 22.7867L28.5589 29.6328C28.7566 29.8305 29.0082 29.9383 29.3047 29.9383C29.8976 29.9383 30.3738 29.4711 30.3738 28.8691C30.3738 28.5727 30.248 28.3121 30.0504 28.1055L23.7523 21.9691L30.0504 15.8328C30.248 15.6262 30.3738 15.3566 30.3738 15.0691C30.3738 14.4672 29.8976 14 29.3047 14C29.0082 14 28.7566 14.1078 28.5589 14.3055L21.5691 21.1426C21.3175 21.3852 21.2007 21.6547 21.2007 21.9691Z" fill="black" fill-opacity="0.8"/>
<path d="M23.1729 21.9691C23.1729 21.6546 23.0561 21.3851 22.8045 21.1515L15.8147 14.3054C15.617 14.1078 15.3655 14 15.069 14C14.476 14 13.9998 14.4671 13.9998 15.0691C13.9998 15.3656 14.1256 15.6261 14.3233 15.8328L20.6213 21.9691L14.3233 28.1054C14.1256 28.3121 13.9998 28.5816 13.9998 28.8691C13.9998 29.471 14.476 29.9382 15.069 29.9382C15.3655 29.9382 15.617 29.8304 15.8147 29.6328L22.8045 22.7957C23.0561 22.5531 23.1729 22.2835 23.1729 21.9691Z" fill="black" fill-opacity="0.8"/>
</svg>
