<svg width="11" height="12" viewBox="0 0 11 12" fill="none" xmlns="http://www.w3.org/2000/svg">
<circle cx="5.5" cy="6.11572" r="5" stroke="#161616"/>
<path d="M5.5082 4.59338C5.36612 4.59338 5.2459 4.54608 5.14754 4.45147C5.04918 4.35685 5 4.24122 5 4.10455C5 3.96789 5.04918 3.85225 5.14754 3.75764C5.2459 3.66303 5.36612 3.61572 5.5082 3.61572C5.64481 3.61572 5.75956 3.66303 5.85246 3.75764C5.95082 3.85225 6 3.96789 6 4.10455C6 4.24122 5.95082 4.35685 5.85246 4.45147C5.75956 4.54608 5.64481 4.59338 5.5082 4.59338ZM5.86885 5.29509V8.61572H5.12295V5.29509H5.86885Z" fill="#161616"/>
</svg>
