<svg width="49" height="49" viewBox="0 0 49 49" fill="none" xmlns="http://www.w3.org/2000/svg">
<path d="M23.4866 24.4999C23.4866 24.775 23.5888 25.0108 23.8089 25.2152L29.925 31.2056C30.098 31.3785 30.3181 31.4729 30.5775 31.4729C31.0964 31.4729 31.513 31.0641 31.513 30.5374C31.513 30.2779 31.403 30.05 31.23 29.8691L25.7192 24.4999L31.23 19.1306C31.403 18.9498 31.513 18.7139 31.513 18.4624C31.513 17.9356 31.0964 17.5269 30.5775 17.5269C30.3181 17.5269 30.098 17.6212 29.925 17.7941L23.8089 23.7766C23.5888 23.9889 23.4866 24.2247 23.4866 24.4999Z" fill="#212121"/>
<path d="M25.2128 24.4999C25.2128 24.2248 25.1106 23.9889 24.8905 23.7845L18.7743 17.7942C18.6014 17.6212 18.3813 17.5269 18.1219 17.5269C17.603 17.5269 17.1864 17.9357 17.1864 18.4624C17.1864 18.7218 17.2964 18.9498 17.4694 19.1306L22.9802 24.4999L17.4694 29.8692C17.2964 30.05 17.1864 30.2858 17.1864 30.5374C17.1864 31.0641 17.603 31.4729 18.1219 31.4729C18.3813 31.4729 18.6014 31.3786 18.7743 31.2056L24.8905 25.2231C25.1106 25.0109 25.2128 24.775 25.2128 24.4999Z" fill="#212121"/>
<circle cx="24.1865" cy="24.5269" r="23" stroke="#212121" stroke-width="2"/>
</svg>
